# File created by Blade
# Date/Time:  Mon Sep 22 16:09:39 2014
# Frame Rate: 120.000 fps
#------------------------------------------------------
:FULLY-SPECIFIED
:DEGREES
2364
root 2.582414 37.013318 2.737712 3.440343 -4.028429 1.463287
RightUpLeg 5.052158 -5.345002 -2.359147
RightLeg -5.147229 -0.000000 0.000000
RightFoot -13.164908 -15.441383 16.231780
RightToeBase 14.485446 -0.000000 -0.000000
LeftUpLeg 3.398021 1.920813 1.840402
LeftLeg -2.742277 -0.000000 0.000000
LeftFoot -10.146028 13.484364 -17.355731
LeftToeBase 9.695849 -0.000000 -0.000000
Spine -3.804282 -12.504294 0.516701
RightShoulder -8.026724 -21.347089 0.314615
RightArm 18.865018 44.106897 98.034906
RightForeArm 89.599307 0.000000 83.528027
RightHand 19.453359 -0.000000 -16.327723
RightHandThumb1 -24.326973 -0.000000 -32.862282
LeftShoulder -27.586350 39.375342 -3.568190
LeftArm 39.180377 9.488476 -72.879373
LeftForeArm 18.266576 -0.000000 25.361411
LeftHand -13.563712 -0.000000 -7.936768
LeftHandThumb1 -26.253704 0.000000 33.147579
Head 13.170447 -6.858467 10.456402
2365
root 2.586916 37.012806 2.737412 3.448267 -4.099061 1.450157
RightUpLeg 5.032154 -5.296756 -2.358846
RightLeg -5.141440 -0.000000 0.000000
RightFoot -13.161552 -15.407041 16.245859
RightToeBase 14.516124 -0.000000 -0.000000
LeftUpLeg 3.398536 1.977984 1.841562
LeftLeg -2.737334 -0.000000 0.000000
LeftFoot -10.160695 13.493514 -17.329194
LeftToeBase 9.687551 -0.000000 -0.000000
Spine -3.827664 -12.459710 0.558194
RightShoulder -8.027375 -21.349047 0.335829
RightArm 18.864938 44.105400 98.028539
RightForeArm 89.591637 -0.000000 83.458175
RightHand 19.607773 -0.000000 -16.032025
RightHandThumb1 -24.326973 -0.000000 -32.862282
LeftShoulder -27.563064 39.365126 -3.545925
LeftArm 39.163349 9.442960 -72.918067
LeftForeArm 18.302829 -0.000000 25.314919
LeftHand -13.570161 -0.000000 -7.977815
LeftHandThumb1 -26.253704 0.000000 33.147579
Head 13.205926 -6.448665 10.443955
2366
root 2.592560 37.011797 2.739855 3.455187 -4.175945 1.454304
RightUpLeg 5.013308 -5.284634 -2.386070
RightLeg -5.118659 -0.000000 0.000000
RightFoot -13.166491 -15.289906 16.272415
RightToeBase 14.509546 -0.000000 -0.000000
LeftUpLeg 3.416142 2.021448 1.822739
LeftLeg -2.757545 -0.000000 0.000000
LeftFoot -10.164854 13.533762 -17.298969
LeftToeBase 9.657170 -0.000000 -0.000000
Spine -3.869654 -12.417518 0.576936
RightShoulder -8.005934 -21.357903 0.347061
RightArm 18.821090 44.097163 97.991236
RightForeArm 89.472108 -0.000000 83.448020
RightHand 19.516559 -0.000000 -16.388716
RightHandThumb1 -24.326973 -0.000000 -32.862282
LeftShoulder -27.607658 39.397494 -3.553701
LeftArm 39.221851 9.431082 -72.930404
LeftForeArm 18.269611 -0.000000 25.232347
LeftHand -13.537879 -0.000000 -7.935939
LeftHandThumb1 -26.253704 0.000000 33.147579
Head 13.268230 -6.032029 10.431879
2367
root 2.595381 37.011547 2.742657 3.461314 -4.235799 1.424823
RightUpLeg 5.013427 -5.208783 -2.359310
RightLeg -5.151195 -0.000000 0.000000
RightFoot -13.133998 -15.342793 16.264531
RightToeBase 14.483258 -0.000000 -0.000000
LeftUpLeg 3.425865 2.058784 1.843818
LeftLeg -2.758435 -0.000000 0.000000
LeftFoot -10.197517 13.548995 -17.311234
LeftToeBase 9.627500 -0.000000 -0.000000
Spine -3.904310 -12.379721 0.639402
RightShoulder -7.995507 -21.374541 0.345429
RightArm 18.768680 44.073081 97.964922
RightForeArm 89.516628 -0.000000 83.464301
RightHand 19.281035 -0.000000 -16.393195
RightHandThumb1 -24.326973 -0.000000 -32.862282
LeftShoulder -27.611817 39.419890 -3.556472
LeftArm 39.231411 9.374871 -72.981531
LeftForeArm 18.265642 -0.000000 25.198863
LeftHand -13.556887 0.000000 -7.925108
LeftHandThumb1 -26.253704 0.000000 33.147579
Head 13.318267 -5.624176 10.402563
2368
root 2.601810 37.010248 2.747689 3.464627 -4.305610 1.432885
RightUpLeg 5.005139 -5.198242 -2.390846
RightLeg -5.136485 -0.000000 0.000000
RightFoot -13.136925 -15.231772 16.303049
RightToeBase 14.491985 -0.000000 -0.000000
LeftUpLeg 3.447735 2.098627 1.821313
LeftLeg -2.772504 -0.000000 0.000000
LeftFoot -10.203187 13.563626 -17.291069
LeftToeBase 9.627283 -0.000000 -0.000000
Spine -3.947620 -12.329927 0.664877
RightShoulder -7.989009 -21.421647 0.318707
RightArm 18.794155 44.014765 97.985448
RightForeArm 89.576297 -0.000000 83.353441
RightHand 19.544822 -0.000000 -16.449190
RightHandThumb1 -24.326973 -0.000000 -32.862282
LeftShoulder -27.543483 39.415000 -3.499340
LeftArm 39.138802 9.295227 -73.082968
LeftForeArm 18.231877 -0.000000 25.223092
LeftHand -13.591813 -0.000000 -7.865384
LeftHandThumb1 -26.253704 0.000000 33.147579
Head 13.369812 -5.184759 10.383727
2369
root 2.608091 37.009757 2.752150 3.457108 -4.377476 1.432461
RightUpLeg 5.010678 -5.145574 -2.408795
RightLeg -5.139054 -0.000000 0.000000
RightFoot -13.134612 -15.209352 16.295722
RightToeBase 14.481397 -0.000000 -0.000000
LeftUpLeg 3.471081 2.156178 1.807050
LeftLeg -2.772118 -0.000000 0.000000
LeftFoot -10.219586 13.579387 -17.281823
LeftToeBase 9.624102 -0.000000 -0.000000
Spine -3.969818 -12.264498 0.695361
RightShoulder -7.976378 -21.452344 0.301285
RightArm 18.794600 44.006907 98.014796
RightForeArm 89.640123 -0.000000 83.301543
RightHand 19.354477 -0.000000 -16.391449
RightHandThumb1 -24.326973 -0.000000 -32.862282
LeftShoulder -27.541792 39.442716 -3.501094
LeftArm 39.156140 9.242788 -73.137362
LeftForeArm 18.244152 0.000000 25.208340
LeftHand -13.616395 -0.000000 -7.765960
LeftHandThumb1 -26.253704 0.000000 33.147579
Head 13.413202 -4.778536 10.361219
2370
root 2.615001 37.009331 2.755487 3.450321 -4.436459 1.438255
RightUpLeg 5.009128 -5.112157 -2.427918
RightLeg -5.134631 -0.000000 0.000000
RightFoot -13.126287 -15.205111 16.270971
RightToeBase 14.488709 -0.000000 -0.000000
LeftUpLeg 3.494537 2.177994 1.786320
LeftLeg -2.779804 -0.000000 0.000000
LeftFoot -10.251762 13.609430 -17.310933
LeftToeBase 9.676795 -0.000000 -0.000000
Spine -3.984633 -12.216812 0.714954
RightShoulder -7.955351 -21.465015 0.282261
RightArm 18.800773 44.009366 98.042846
RightForeArm 89.737224 -0.000000 83.223510
RightHand 19.303589 0.000000 -16.323008
RightHandThumb1 -24.326973 -0.000000 -32.862282
LeftShoulder -27.546918 39.458102 -3.491669
LeftArm 39.156734 9.193825 -73.213517
LeftForeArm 18.293914 0.000000 25.218501
LeftHand -13.670749 -0.000000 -7.806228
LeftHandThumb1 -26.253704 0.000000 33.147579
Head 13.442905 -4.395652 10.352702
2371
root 2.620332 37.009863 2.757160 3.457403 -4.487192 1.427854
RightUpLeg 4.995557 -5.070166 -2.431135
RightLeg -5.130494 -0.000000 0.000000
RightFoot -13.102683 -15.185014 16.267417
RightToeBase 14.486873 -0.000000 -0.000000
LeftUpLeg 3.498094 2.201293 1.783335
LeftLeg -2.781513 -0.000000 0.000000
LeftFoot -10.266576 13.633566 -17.318081
LeftToeBase 9.641427 -0.000000 -0.000000
Spine -4.021688 -12.164102 0.759624
RightShoulder -7.923637 -21.467397 0.266182
RightArm 18.780698 44.055475 98.063565
RightForeArm 89.760613 0.000000 83.208472
RightHand 19.203072 -0.000000 -16.478186
RightHandThumb1 -24.326973 -0.000000 -32.862282
LeftShoulder -27.538300 39.477664 -3.486602
LeftArm 39.154289 9.141937 -73.281635
LeftForeArm 18.313702 -0.000000 25.238636
LeftHand -13.650260 -0.000000 -7.828263
LeftHandThumb1 -26.253704 0.000000 33.147579
Head 13.487121 -3.999962 10.337587
2372
root 2.626938 37.010315 2.756703 3.462504 -4.536446 1.428810
RightUpLeg 4.978343 -5.005842 -2.443350
RightLeg -5.124869 -0.000000 0.000000
RightFoot -13.096880 -15.197315 16.270697
RightToeBase 14.517151 -0.000000 -0.000000
LeftUpLeg 3.491629 2.227473 1.768931
LeftLeg -2.766064 -0.000000 0.000000
LeftFoot -10.275805 13.648194 -17.299903
LeftToeBase 9.629615 -0.000000 -0.000000
Spine -4.038522 -12.104834 0.784157
RightShoulder -7.896431 -21.356867 0.242549
RightArm 18.692071 44.127500 98.022564
RightForeArm 89.785410 -0.000000 83.088623
RightHand 19.475894 -0.000000 -16.189663
RightHandThumb1 -24.326973 -0.000000 -32.862282
LeftShoulder -27.535189 39.489715 -3.476848
LeftArm 39.161615 9.094757 -73.355254
LeftForeArm 18.366703 0.000000 25.275998
LeftHand -13.729623 -0.000000 -7.748551
LeftHandThumb1 -26.253704 0.000000 33.147579
Head 13.500858 -3.642170 10.352169
